<svg enable-background="new 0 0 203.2 119.3" viewBox="0 0 203.2 119.3" xmlns="http://www.w3.org/2000/svg"><g fill="#fff"><path d="m30.8 77.2h12.2v4.9h-13.8z"/><path d="m43 77.2h3.4c4.7 0 5.1-2.8 5.1-4.5 0-2.7-1.3-4.8-4.8-4.8h-3.7zm-5.1 18.1v-32.4h9.1c2.5 0 4.8.9 6.7 2.7s2.8 4 2.8 6.6c0 2.2 1 6.9-6.3 9.9l7.3 13.2h-5.8l-7.1-13.2h-1.7v13.2z"/><path d="m108.5 72.1-5.6 6.7h5.6zm-24.4 23.2 25-32.2h4.7v32.2h-5.3v-11.7h-7.8l-9.4 11.7z"/><path d="m117.6 95.3v-32.4h1.3l17.1 20v-20h5.2v32.4h-2l-16.5-20v20z"/><path d="m146.1 62.9h5.1v32.4h-5.1z"/><path d="m180.2 65.6-2.8 3.8c-1.8-1-3.9-1.5-6.3-1.5-3 0-5.6 1.1-7.9 3.3-2.2 2.2-3.3 4.8-3.3 7.9 0 3 1.1 5.7 3.3 7.8 2.2 2.2 4.8 3.3 7.9 3.3 2.4 0 4.6-.5 6.3-1.5l2.8 3.8c-2.7 1.9-5.7 2.8-9.1 2.8-4.4 0-8.2-1.6-11.4-4.8s-4.8-7-4.8-11.4 1.6-8.2 4.8-11.4 7-4.8 11.4-4.8c3.4 0 6.4.9 9.1 2.7z"/><path d="m182.3 89.1 3.9-2.3c.7.9 1.5 1.7 2.4 2.4s2.1 1 3.5 1 2.5-.3 3.3-.8c.8-.6 1.2-1.6 1.2-3 0-1.5-1.3-3.2-3.8-5.2-2.6-2-4.6-3.7-6.1-5.1s-2.3-3.3-2.3-5.7.9-4.3 2.7-5.6 3.6-2 5.6-2c1.9 0 3.6.3 4.9 1s2.4 1.6 3.2 2.7l-3.9 2.9c-.9-.7-1.6-1.1-2.2-1.3-.5-.2-1.1-.3-1.8-.3s-1.5.2-2.2.7c-.8.5-1.1 1.2-1.1 2.1 0 1 1 2.2 2.9 3.7s4 3.3 6.1 5.2c2.1 2 3.2 4.3 3.2 6.9 0 2.7-.9 4.8-2.7 6.3-1.9 1.5-4.1 2.3-6.8 2.3s-4.8-.7-6.5-2.2c-1.8-1.2-2.9-2.5-3.5-3.7z"/><path d="m7.9 73.8c.4-.6.8-1.2 1.3-1.8 2.2-2.4 4.8-3.7 8-3.9s6 .8 8.4 3 3.7 4.8 3.9 8c.1 1 0 2-.2 3h5.4c.1-1 .2-2.1.1-3.2-.3-4.6-2.1-8.5-5.6-11.6-3.5-3.2-7.6-4.6-12.2-4.3s-8.5 2.1-11.6 5.6c-1.5 1.6-2.6 3.4-3.3 5.3z"/><path d="m28.2 85c-.5.9-1 1.7-1.8 2.6-2.2 2.4-4.8 3.7-8 3.9s-6-.8-8.4-3-3.7-4.8-3.9-8c-.1-1.3.1-2.5.4-3.7h-5.3c-.2 1.3-.3 2.6-.2 4 .3 4.6 2.1 8.5 5.6 11.6s7.6 4.6 12.2 4.3 8.5-2.1 11.6-5.6c1.7-1.9 2.8-3.9 3.6-6.1z"/><path d="m82.7 83.6c-.4 1.2-.9 2.3-1.7 3.3-1.5 2.2-3.8 3.3-6.8 3.3s-5.7-1.1-7.9-3.3-3.3-4.8-3.3-7.9c0-3 1.1-5.7 3.3-7.9s4.8-3.3 7.9-3.3c3 0 5.6 1.1 7.9 3.3l3.6-3.6c-3.2-3.2-7-4.8-11.4-4.8s-8.2 1.6-11.4 4.8-4.8 7-4.8 11.4 1.6 8.2 4.8 11.4 7 4.8 11.5 4.8 8-1.6 10.4-4.8c1.6-2 2.6-4.3 3.2-6.9v-.9h-5.2z"/><path d="m75.6 78.7h35.8v4.9h-35.8z"/><path d="m.9 98.6h3.6v19.6h-3.6z"/><path d="m8.8 118.2v-19.6h.7l10.4 12.1v-12.1h3.1v19.6h-1.2l-10-12.1v12.1z"/><path d="m31.1 118.2v-16.5h-5.1v-3.1h13.3v3.1h-5.1v16.5z"/><path d="m42.3 118.2v-19.6h10.1v3.1h-7v6h6.5v3.1h-6.5v4.3h7v3.1z"/><path d="m59.3 107.7h2.1c.9 0 1.6-.3 2.2-.8s.9-1.3.9-2.4c0-1-.3-1.8-.8-2.2s-1.2-.6-2.1-.6h-2.2zm-3.1 10.5v-19.6h5.5c1.5 0 2.9.5 4 1.6s1.7 2.4 1.7 4-.4 2.9-1.2 3.9c-.8 1.1-1.7 1.8-2.8 2.2l5.5 7.8h-3.5l-5.2-7.4h-1v7.4h-3z"/><path d="m71.8 118.2v-19.6h.8l10.3 12.1v-12.1h3.1v19.6h-1.1l-10-12.1v12.1z"/><path d="m98.7 103.4-1.7 4.3h3.6zm-8.9 14.8 8.6-20.5h.6l8.6 20.5h-3.2l-2.8-7.4h-5.8l-2.9 7.4z"/><path d="m113 118.2v-16.5h-5.1v-3.1h13.3v3.1h-5.1v16.5z"/><path d="m124.2 98.6h3.1v19.6h-3.1z"/><path d="m146.8 108.4c0-1.8-.7-3.4-2-4.7s-2.9-2-4.7-2-3.4.7-4.7 2-2 2.9-2 4.7.7 3.4 2 4.7 2.9 2 4.7 2 3.4-.7 4.7-2c1.4-1.3 2-2.9 2-4.7zm3.1 0c0 2.7-1 5-2.9 6.9s-4.2 2.9-6.9 2.9-5-1-6.9-2.9-2.9-4.2-2.9-6.9 1-5 2.9-6.9 4.2-2.9 6.9-2.9 5 1 6.9 2.9 2.9 4.2 2.9 6.9z"/><path d="m152.9 118.2v-19.6h.8l10.3 12.1v-12.1h3.2v19.6h-1.2l-10-12.1v12.1z"/><path d="m179 103.4-1.7 4.3h3.6zm-9 14.8 8.6-20.5h.6l8.6 20.5h-3.2l-2.8-7.4h-5.8l-2.9 7.4z"/><path d="m190.8 118.2v-19.6h3v16.5h8v3.1z"/><path d="m59.2 20.3.1.4v.2c0 .1-.1.7-.1.7l.1.3s-.1.3 0 .3v.3s.1 1.1.1 1.2.1.4.1.4l.1.3v.5.4.2.4.3.2.4c0 .1-.1.5-.1.6s.1.3 0 .5c0 .2-.2.2-.2.2s-.1.4-.1.5.2.5.2.6 0 .2.1.3c0 .1.1.1 0 .2 0 .1-.2.2-.2.3s-.1.4-.1.4 0 .2-.1.2c-.1.1-.1 0-.1.3v.4.5l.1.3v.2c0 .1.1.3.1.3l.3.3s.5.5.6.6c0 .1.4.5.4.6s.2.2.2.2l.2.5s.3.1.3.2.1.2.1.2.2.2.3.2.3.1.3.1c.1.1.3.2.3.2l.3.1c.1.1.3.1.3.2v.6c0 .1.1.2.1.4v.5.7c0 .2-.1.4-.1.5v.3s.1.6 0 .6c0 .1-.1.2-.1.3s-.1.5-.1.6.1.4.1.4.2.2.1.2c-.1.1-.2.1-.2.2s0 .3 0 .3l.1.2s0 .1.2.2.2.1.4.1.3.1.3 0c.1 0 .1 0 .1-.2 0-.1.1-.3.1-.4.1 0 .2-.1.2-.3 0-.1.1-.3.1-.3l.3-.3s.1-.3.2-.3.2-.1.2-.1.1-.2.2-.3c0-.1.2-.2.2-.2s.3 0 .4-.2.2-.4.2-.4l.2-.1s.2-.1.3-.2.7-.8.7-.8l.5-.9v-.3c0-.1.1-.3.2-.4.1-.2.6-.9.6-.9l.4-.3.3-.5s.3-.6.3-.8-.1-.7-.1-.7-.2-.2-.1-.3c0-.1.1-.4.1-.4s0-.4.1-.5c0-.1.2-.3.2-.3s.1-.2.1-.3.1-.3.1-.3l.1-.5s0-.1 0-.4c.1-.3 0-.5 0-.5 0-.1-.2-.2-.2-.3s-.3-.1-.3-.1h-.3l-.3-.1h-.3l-.3.1h-.3-.3-.2c-.1 0-.3 0-.4 0s-.3 0-.3-.1c-.1 0-.3-.2-.3-.3s-.2-.3-.3-.4l-.4-.4-.1-.2s-.2-.2-.3-.2-.4-.1-.4-.1-.1 0-.2.1c-.1 0-.3.1-.3.1s-.1-.1-.2-.1c-.1-.1-.4-.3-.5-.4-.1 0-.5 0-.5 0l-.1-.3s-.3-.1-.4-.1-.3-.2-.3-.2l-.2.1-.1.2h-.3l-.4-.1h-.3l-.2-.1h-.4-.2l-.2-.1-.4-.4c.1 0 .1 0 .2-.1s.1-.1.3-.1.1-.2.1-.3 0-.4 0-.4 0-.2.1-.3 0-.2 0-.2 0-.2.1-.3c0-.1.1-.1.2-.1s.1-.3.1-.4v-.5c0-.1.1-.1.2-.2 0-.1.1-.3.1-.4s.2-.2.2-.3 0-.3 0-.4-.2-.3-.2-.3c-.1-.1 0-.2-.1-.2 0-.1-.1-.2-.1-.3s0-.3 0-.4-.1-.3-.1-.3c0-.1 0-.2 0-.2 0-.1.4-.2.5-.2s.3 0 .4-.1c.1 0 .2-.1.2-.2s.2-.1.3-.2.2-.1.3-.1.3.1.4.2.2.2.3.2l.3.4v.3c0 .1.2.4.2.5s-.1.5-.1.5-.1.2-.2.3c-.1 0-.2.3-.2.4-.1.1-.2.3-.2.3s-.2.2-.3.3-.2.4-.2.4c0 .1-.2.2-.2.3s.1.1.2.1.2 0 .2-.1.1-.1.1-.2c.1 0 .3-.1.4-.2s0-.1 0-.2.1-.2.1-.3.1-.1.2-.2.2-.1.2-.2.3-.2.3-.3.3-.3.4-.3.2-.1.2-.1.3 0 .4 0h.5c.1 0 .1-.1.2-.1h.5.3c.1 0 .6.1.6.1.1 0 .5-.1.6-.1s.1 0 .2.1c0 .1.2.2.2.2s.2.1.3.2c.1 0 .4-.1.4-.2.1 0 .1-.2.1-.3s.3-.3.4-.3.4 0 .4.1c.1.1.1.2.1.3.1.1-.1.4-.1.4l-.1.1s-.2.1-.3.2c-.1 0-.1.2 0 .2 0 .1.1.2.2.3.1 0 .3.1.4.1s.1-.2.1-.3 0-.2 0-.3.1-.2.1-.3.2-.2.2-.3.1-.1.3-.2c.3-.2.1-.2.2-.3 0-.1 0-.1.2-.2s.2-.5.2-.8c.1-.3 0-.4 0-.6s0-.4 0-.5c0-.2 0-.4 0-.5s-.1-.2-.1-.2-.2 0-.3 0-.2.1-.4.1-.2 0-.3 0-.2 0-.3.1c-.1 0-.2 0-.3 0s-.2-.1-.2-.2 0-.2 0-.3v-.1c.1-.1 0-.1.1-.2s.1-.3.2-.4.1-.2.1-.3.2-.4.3-.4c.1-.1.1-.1.2-.1h.3.3c.2 0 .3.3.3.3 0 .1.2.3.2.3l.2.1h.4c.2 0 .2-.2.2-.2l.3-.2s.3 0 .4-.1.3 0 .3 0l.2.1v.3c0 .1-.2.2-.2.2s-.2.1-.3.2-.2.2-.2.3-.3.3-.4.4 0 .2 0 .3.2.2.2.2h.4.3c.1 0 .2-.1.2-.1.1 0 .1-.1.2-.2s.1-.2.1-.2.1-.1.2-.4c.1-.2.1-.1.2-.2s.2-.1.2-.1l.2-.1h.2c.1 0 0 .2 0 .3v.2l-.3.3-.1.3s-.1.1-.2.1-.1.2-.1.2c0 .1-.1.3-.1.4-.1.1-.3.3-.3.3l-.1.3s-.1.2-.2.3c-.1 0-.1.2-.1.2s-.1.3-.1.4v.4s.1.1.1.3c0 .1.2.1.3.1s.2-.1.2-.1c.1 0 .2-.2.2-.2s.2-.1.2-.2.2-.1.2-.1.4-.1.5-.1c.2 0 .3-.2.4-.2.1-.1.3-.1.3-.1s.4-.2.5-.3.1-.2.2-.2.3-.3.3-.4c.1-.1.1-.2.1-.3s.1-.2.1-.3.1-.1.1-.2.3-.3.3-.3 0-.2 0-.3 0-.2.1-.3c0-.1 0-.3 0-.3 0-.1 0-.2-.1-.3 0-.1-.2-.2-.2-.2l-.2-.1c-.1 0-.2-.2-.2-.4-.1-.2 0-.2-.1-.2 0-.1-.1-.2-.1-.2s-.1 0-.3-.2c-.1-.1-.3-.1-.3-.1-.1 0-.2.1-.3.1 0 .1-.1.2-.1.3v.5c0 .1-.2.2-.2.2l-.2.2-.4-.1s-.1-.1-.1-.2-.1-.1-.2-.2-.2-.1-.2-.2c-.1 0-.2 0-.3-.1s-.2-.2-.2-.2c-.1 0-.2-.2-.2-.2v-.2c0-.2.2-.1.2-.1l.3-.1h.3s.1-.1.2-.2.1-.2.1-.2c0-.1 0-.2 0-.2l.1-.3c0-.1-.1-.4-.1-.4 0-.1.3-.2.3-.2 0-.1.3-.2.3-.2.1 0 .2-.1.2-.2s.5-.3.5-.3c.1-.1.1-.1.2-.1s.5 0 .5-.1.2 0 .2 0 .3.1.4.1.1-.2.1-.2l.1-.1c.1 0 .2 0 .3-.1s.3 0 .4 0h.3c.1 0 .3.1.3.2s.3.1.4.1.4.2.4.3c.1.1.2.1.3.2s.3.1.3.1l.2.1s.2.1.2.2.2.2.3.3.2.2.3.2.3.4.3.4.2.4.3.5.3.6.3.6v.6c0 .1-.2.7-.2.7l-.3.3s-.1.3-.1.4-.1.3-.2.4 0 .2 0 .3-.2.4-.2.4c-.1.1-.2.1-.3.1s0 .3 0 .3l.1.2v.4c0 .1.1.3.1.4v.3c0 .1-.3.3-.3.3s-.2.4-.2.5-.2.4-.2.5-.3.2-.4.3c-.1 0-.2 0-.2 0l-.2-.1-.3-.2s-.2 0-.4-.1c-.1-.1-.4.2-.6.3s-.2.2-.3.3-.3.1-.4.2-.2.2-.2.2c0 .1-.3.5-.3.6s-.2.4-.2.5 0 .3 0 .5v.3c0 .1.3.3.3.3s.3.1.4.1.4-.1.4-.1c.1 0 0-.2.1-.3s0-.1.1-.2.1-.3.1-.4.1-.1.1-.2c.1 0 .1 0 .3.1.1.1.2 0 .3 0s.1 0 .2.1c.1 0 .1.3.1.3s.1.2 0 .4c-.1.1-.1.3-.1.4-.1.1-.1.1-.2.2-.1.2 0 .3-.1.4s-.1.3-.3.3c-.1 0-.4.1-.5.1s-.2 0-.4 0c-.1 0-.1-.1-.3 0-.2 0-.5.1-.5.1-.1 0-.3 0-.3 0-.1 0-.1-.1-.3-.1s-.3 0-.3-.1-.1-.1-.1-.3-.1-.3-.1-.3l-.2-.1h-.1s-.2.2-.4.3-.4.2-.4.3c-.1.2-.1.5 0 .6 0 0 .2.3.4.4.1.1.2.1.2.2.1.1.2.3.2.4.1.2 0 .3 0 .4 0 .2.1.5-.2.7-.1.1-.1.1-.2.2-.1 0-.1.2-.2.2-.2.1-.5.2-.6.3v.5c.1.2-.1.4 0 .5 0 0 .1.1.2.1 0 0 .1.1.1.2.1.1.1.1.2.2.2.2.3.3.3.4h.3l.4-.2.4-.3.5-.3.2-.8.5-.3.6-.1.8.2.2.4.3.6.4-.2h.6l.6-.2 2.1.2.1.5-.4.7-.7.4-1.2.2-.3.3h-.7l-.6-.4-.7-.7h-.3l-.2.2h-1.6v-.1h-.1l-.5.3-.5.1c0 .2 0 .3-.1.4-.1 0-.1.1-.2.1-.2.1-.4.2-.4.3s-.1.4-.2.5-.5.7-.7.7c-.2.1-.3.1-.4.3s-.3.8-.3.9v.7 1.1c0 .1.2.5.3.6s.7.6.7.8c0 .1.3.4.5.5s.5.2.6.2 1.3 0 1.4-.1c.2-.1.4-.2.6-.2h.9c.1 0 .9 0 1 .2.2.2.4.3.4.5v.7c.1.1.1.2.1.3.1.1.3.4.4.4.2 0 .3.1.3.1s.2.3.2.4.1 1 .1 1.1.1.3.1.3 0 1 .1 1.1c0 .1.4.6.5.7s.4.6.4.7.2.5.2.5 0 .3.2.3h.7c.1 0 .4-.2.5-.2.1-.1.7-.6.8-.6s1.1-.5 1.2-.6 1-.8 1.1-.9.2-.9.2-1.1c0-.1.2-.5.2-.6s.1-1.2 0-1.3-.3-.9-.4-1-.4-.6-.4-.7.1-1 .3-1.1.6-1 .6-1.1 0-.4.1-.5.2-.3.2-.4.1-.5.1-.6.1-.5 0-.5c-.1-.1-.2-.1-.2-.1s-.2.1-.3.1-.1.2-.2.2-.4.1-.5.1c-.1-.1-.3-.1-.4-.1s-.6.1-.6 0c-.1 0-.4-.2-.5-.3s-.1-.4-.4-.5-.4-.3-.4-.5c0-.1-.1-.3 0-.4s.1-.2.3-.2.4.1.5.2c0 .1.1.2.2.3.2.1.2.1.3.2s.2.1.4.3.4.2.5.2.2-.1.4-.1c.1 0 .3-.1.3-.2s.1-.4.2-.5.3-.5.4-.6c.1-.2.3-.6.3-.8 0-.1 0-.6-.1-.7s-.2-.2-.2-.3-.1-.2-.2-.2-.4-.1-.4.1c-.1.1-.2.2-.2.2-.1.1-.2.2-.3.2s-.2.1-.4 0c-.2 0-.4 0-.3-.2 0-.2.1-.3.1-.4s0-.2.1-.3.5-.1.6-.1c.1-.1.2-.2.5-.1.2.1.5.1.5.1.1 0 .5-.4.5-.5s.1-.3.2-.4.2-.5.3-.5.6 0 .6.1.4.5.5.5.2.1.3.2c.1 0 .6.2.6.3s.2.2.3.2h.6.5s.3-.1.3-.2-.1-.3-.1-.4-.2-.2-.3-.3-.5-.1-.5-.3-.2-.3-.2-.4c-.1-.1-.2-.4-.2-.4s-.2-.4-.1-.5c0-.1.1-.4.1-.6 0-.1 0-.4 0-.5s-.1-.4 0-.5.1-.3.1-.4-.1-.5 0-.6.3-.1.5-.2c.2 0 .2.1.4 0s.2-.3.4-.3c.1-.1.4-.1.5-.1h.1v-.1c-2.1-7.5-9-13.1-17.1-13.1-6.9-.4-12.5 3.1-15.7 8.3z"/><path d="m10.2 53 8.9-49.4s0 .1-.1 0h-9.2l-8.9 49.4z"/><path d="m187.5 3.6-19.6 30.3-5.1-30.3h-15.2l-9 49.4h9.9l6.4-35.8 6.2 35.8h6.1l22-34.6-6.2 34.6h9.8l9-49.4z"/><path d="m92.6 38.2c-3.2 6.5-10 11.1-17.8 11.1-11 0-19.9-8.9-19.9-19.8 0-1.8.2-3.5.7-5.2h-.1-26.8l2.1-12.1h16.5l1.5-8.7s-16.5.1-16.6 0h-9.2l-8.9 49.4h9.6l3.5-19.7h19.1c1.8 14 13.9 24.9 28.5 24.9 12.8 0 23.7-8.4 27.4-19.9z"/><path d="m96.8 53h11.2l9-14.8h-11.1z"/><path d="m129.6 24.4h-4.7l6.9-11.5zm-2.1-20.8-12.9 20.8h-11.5c-2.4-13.4-14.2-23.5-28.3-23.5-12.3 0-22.8 7.7-26.9 18.5h9.8c3.5-5.8 9.8-9.7 17.1-9.7 11 0 19.9 8.9 19.9 19.8 0 1.3-.1 2.6-.4 3.8h33.6l-3.6 19.7h9.8l8.9-49.4z"/></g></svg>