<?xml version="1.0" encoding="utf-8"?>
<!-- Generator: Adobe Illustrator 24.2.3, SVG Export Plug-In . SVG Version: 6.00 Build 0)  -->
<svg version="1.1" id="ot_x5F_logo" xmlns="http://www.w3.org/2000/svg" xmlns:xlink="http://www.w3.org/1999/xlink" x="0px"
	 y="0px" viewBox="0 0 124.2 124.2" style="enable-background:new 0 0 124.2 124.2;" xml:space="preserve">
<style type="text/css">
	.st0{fill:#828D96;}
	.st1{fill:#FFFFFF;}
</style>
<circle class="st0" cx="62.1" cy="61.9" r="61.2"/>
<path class="st1" d="M14.3,54.4c-1-0.2-1.8-0.6-2.4-1c-0.5-0.3-0.8-0.8-1.1-1.2s-0.5-1-0.6-1.5C10,50,10,49.2,10.2,48.4
	c0.3-1.5,1.1-2.5,2.2-3.2c1.1-0.7,2.5-0.8,4.1-0.4c1.6,0.4,2.7,1.1,3.5,2.2c0.7,1.1,0.9,2.3,0.5,3.8c-0.3,1.5-1.1,2.5-2.2,3.2
	C17.2,54.6,15.9,54.8,14.3,54.4z M14.7,52.3c1.1,0.3,2,0.2,2.7-0.2c0.7-0.4,1.1-1,1.3-1.8c0.2-0.8,0-1.5-0.4-2.2s-1.3-1.1-2.4-1.4
	c-1.1-0.3-2-0.2-2.7,0.2c-0.7,0.4-1.1,1-1.3,1.8s-0.1,1.6,0.4,2.2C12.8,51.6,13.6,52.1,14.7,52.3z"/>
<path class="st1" d="M22.2,44l-9-4.8l2-3.8c0.5-1,1-1.6,1.3-2c0.4-0.3,0.9-0.5,1.4-0.6c0.6,0,1.1,0.1,1.6,0.4
	c0.7,0.4,1.1,0.9,1.4,1.5c0.2,0.6,0.2,1.4-0.1,2.2c0.4-0.3,0.9-0.5,1.3-0.6c0.4-0.1,1.1-0.2,2-0.3l2.3-0.2l-1.2,2.2l-2.6,0.3
	c-0.9,0.1-1.6,0.2-1.8,0.3c-0.3,0.1-0.5,0.2-0.7,0.3c-0.2,0.2-0.4,0.4-0.6,0.9l-0.2,0.4l3.7,2L22.2,44z M18,39.5l0.7-1.3
	c0.5-0.9,0.7-1.4,0.8-1.7c0-0.3,0-0.5-0.1-0.7s-0.3-0.4-0.6-0.5c-0.3-0.2-0.6-0.2-0.9-0.1c-0.3,0.1-0.5,0.2-0.7,0.5
	c-0.1,0.1-0.3,0.6-0.7,1.3l-0.8,1.4L18,39.5z"/>
<path class="st1" d="M28,28.7l-1.3-1.2l3-3.2l3,2.8c0,0.6-0.1,1.3-0.5,2.1c-0.3,0.8-0.8,1.5-1.3,2.1c-0.7,0.8-1.5,1.3-2.4,1.6
	s-1.7,0.3-2.6,0c-0.9-0.3-1.7-0.7-2.4-1.4c-0.8-0.7-1.3-1.5-1.6-2.4c-0.3-0.9-0.3-1.8-0.1-2.7c0.2-0.7,0.6-1.4,1.3-2.1
	c0.9-0.9,1.7-1.5,2.6-1.6c0.9-0.2,1.7,0,2.5,0.5l-1.1,1.8c-0.5-0.2-0.9-0.3-1.4-0.2c-0.5,0.1-0.9,0.4-1.3,0.8
	c-0.6,0.7-0.9,1.4-0.8,2.1c0.1,0.8,0.5,1.5,1.3,2.3c0.9,0.8,1.7,1.2,2.5,1.3c0.8,0,1.5-0.3,2.1-0.9c0.3-0.3,0.5-0.7,0.7-1.1
	c0.2-0.4,0.3-0.8,0.3-1.2l-0.9-0.9L28,28.7z"/>
<path class="st1" d="M43.3,21.6l-1.9,1.2l-2-1.5L36,23.5l0.5,2.4L34.7,27l-2.1-10.7l1.8-1.2L43.3,21.6z M38,20.2l-3.2-2.4l0.9,3.9
	L38,20.2z"/>
<polygon class="st1" points="44.8,21 41.7,11.3 43.6,10.7 49.7,15.9 47.5,9.4 49.4,8.8 52.5,18.5 50.6,19.1 44.6,14.1 46.7,20.4 "/>
<rect x="54.6" y="7.9" transform="matrix(0.9908 -0.135 0.135 0.9908 -1.2418 7.621)" class="st1" width="2.1" height="10.2"/>
<path class="st1" d="M66.5,14l2,0.7c-0.4,1.1-0.9,1.9-1.6,2.4c-0.7,0.5-1.6,0.7-2.7,0.7c-1.3-0.1-2.4-0.6-3.3-1.5
	c-0.8-1-1.2-2.2-1.1-3.8c0.1-1.7,0.6-3,1.5-3.9c0.9-0.9,2.1-1.3,3.5-1.2c1.2,0.1,2.2,0.5,3,1.2c0.4,0.5,0.8,1.1,1,1.9l-2.1,0.4
	c-0.1-0.5-0.3-1-0.7-1.3c-0.4-0.3-0.8-0.5-1.4-0.5c-0.8,0-1.4,0.2-1.9,0.7c-0.5,0.5-0.8,1.4-0.8,2.6c-0.1,1.3,0.1,2.2,0.6,2.8
	c0.4,0.6,1,0.9,1.8,0.9c0.5,0,1-0.1,1.4-0.5C66,15.3,66.3,14.8,66.5,14z"/>
<polygon class="st1" points="77.3,20.4 80.5,12.6 77.7,11.4 78.4,9.9 85.9,12.9 85.2,14.5 82.4,13.4 79.2,21.2 "/>
<path class="st1" d="M83.7,23.2l5.9-8.3l3.5,2.5c0.9,0.6,1.5,1.2,1.8,1.6c0.3,0.4,0.4,0.9,0.4,1.5c0,0.6-0.2,1.1-0.6,1.6
	c-0.4,0.6-1,1-1.6,1.1c-0.7,0.1-1.4,0-2.2-0.4c0.2,0.5,0.3,0.9,0.4,1.3s0.1,1.1,0,2l-0.1,2.3l-2-1.4l0.1-2.7c0-0.9,0-1.6,0-1.8
	c0-0.3-0.1-0.5-0.3-0.7c-0.1-0.2-0.4-0.4-0.8-0.7L87.8,21l-2.5,3.5L83.7,23.2z M88.7,19.6l1.2,0.9c0.8,0.6,1.3,0.9,1.6,1
	c0.2,0.1,0.5,0.1,0.7,0c0.2-0.1,0.4-0.3,0.6-0.5c0.2-0.3,0.3-0.6,0.3-0.8c0-0.3-0.2-0.5-0.4-0.8c-0.1-0.1-0.5-0.4-1.2-0.9l-1.3-0.9
	L88.7,19.6z"/>
<path class="st1" d="M99.9,23.1l1.3,1.6l-4.2,3.6c-0.7,0.6-1.1,0.9-1.2,1.2c-0.3,0.3-0.4,0.7-0.4,1.1c0,0.4,0.2,0.8,0.6,1.3
	c0.4,0.4,0.8,0.7,1.1,0.8c0.4,0.1,0.7,0,1-0.2c0.3-0.2,0.8-0.5,1.4-1l4.3-3.6l1.3,1.6l-4.1,3.4c-0.9,0.8-1.6,1.3-2.1,1.5
	c-0.5,0.2-0.9,0.4-1.4,0.4c-0.5,0-0.9-0.1-1.4-0.4c-0.5-0.2-1-0.7-1.5-1.3c-0.6-0.7-1-1.4-1.2-1.9c-0.2-0.5-0.2-1-0.1-1.5
	c0.1-0.5,0.2-0.8,0.5-1.2c0.4-0.5,1-1.1,1.8-1.8L99.9,23.1z"/>
<path class="st1" d="M101.6,36.2l1.1,1.7c-0.5,0.4-0.9,0.8-1,1.3c-0.1,0.5,0,1,0.2,1.5c0.3,0.6,0.6,1,1,1.2c0.4,0.2,0.8,0.2,1.1,0
	c0.2-0.1,0.4-0.3,0.5-0.5c0.1-0.2,0.1-0.5,0.1-0.9c0-0.3-0.1-0.8-0.3-1.7c-0.2-1.1-0.3-1.9-0.1-2.5c0.2-0.8,0.7-1.4,1.4-1.7
	c0.5-0.2,1-0.3,1.5-0.2c0.5,0.1,1,0.3,1.5,0.7c0.5,0.4,0.9,0.9,1.2,1.6c0.6,1.1,0.7,2.1,0.5,3s-0.7,1.5-1.6,1.9l-1-1.8
	c0.4-0.3,0.7-0.6,0.8-1c0.1-0.4,0-0.8-0.3-1.3c-0.3-0.5-0.6-0.9-1-1.1c-0.2-0.1-0.5-0.1-0.7,0c-0.2,0.1-0.4,0.3-0.4,0.5
	c-0.1,0.3,0,1,0.2,2c0.2,1,0.3,1.8,0.3,2.3c0,0.5-0.2,1-0.4,1.5s-0.7,0.8-1.3,1.1c-0.5,0.3-1.1,0.4-1.7,0.3
	c-0.6-0.1-1.1-0.3-1.6-0.7c-0.5-0.4-0.9-1-1.3-1.8c-0.6-1.2-0.7-2.2-0.5-3C100,37.6,100.6,36.9,101.6,36.2z"/>
<polygon class="st1" points="103.5,49.5 111.7,47.5 111,44.6 112.7,44.2 114.6,52 112.9,52.4 112.2,49.5 104,51.5 "/>
<ellipse class="st1" cx="61.2" cy="56.7" rx="6.1" ry="10.9"/>
<path class="st1" d="M60.3,96.7C56,88.6,48.7,84.6,37.5,78.5c-11.5-6.3-14.4-24.7-9.3-36.1c-0.1,16.1,12.2,24,24,32.8
	C59.9,81.1,61.9,87.2,60.3,96.7z"/>
<path class="st1" d="M63.7,96.7c4.4-8.1,11.6-12.1,22.9-18.2c11.5-6.3,14.4-24.7,9.3-36.1c0.1,16.1-12.2,24-24,32.8
	C64.1,81.1,62.1,87.2,63.7,96.7z"/>
<path class="st1" d="M14.3,74.7c1-0.4,1.8-0.6,2.6-0.5c0.6,0,1.1,0.1,1.6,0.4c0.5,0.2,1,0.5,1.3,0.9c0.5,0.5,0.9,1.1,1.2,1.9
	c0.6,1.4,0.6,2.7,0,3.9c-0.5,1.2-1.6,2.1-3.1,2.7c-1.5,0.6-2.9,0.7-4.1,0.2c-1.2-0.5-2.1-1.4-2.6-2.8c-0.6-1.4-0.6-2.7,0-3.9
	C11.8,76.2,12.8,75.3,14.3,74.7z M15.1,76.6c-1.1,0.4-1.8,1-2.1,1.7c-0.4,0.7-0.4,1.5-0.1,2.2c0.3,0.8,0.8,1.3,1.6,1.5
	c0.7,0.3,1.7,0.2,2.8-0.2c1.1-0.4,1.8-1,2.1-1.7c0.3-0.7,0.4-1.4,0-2.2c-0.3-0.8-0.8-1.3-1.6-1.6C17.1,76.1,16.2,76.2,15.1,76.6z"/>
<path class="st1" d="M15.4,89.3l8.3-5.9l2.5,3.5c0.6,0.9,1,1.6,1.2,2.1c0.1,0.5,0.1,1-0.1,1.5c-0.2,0.5-0.6,0.9-1,1.3
	c-0.6,0.4-1.3,0.6-1.9,0.5s-1.3-0.4-1.9-1.1c0,0.5,0,1-0.1,1.4c-0.1,0.4-0.3,1.1-0.7,1.9l-0.9,2.2l-1.4-2l0.9-2.5
	c0.3-0.9,0.5-1.5,0.6-1.7s0.1-0.5,0-0.7s-0.2-0.5-0.5-0.9L20,88.5L16.5,91L15.4,89.3z M21.3,87.6l0.9,1.2c0.6,0.8,1,1.3,1.2,1.4
	c0.2,0.2,0.4,0.2,0.7,0.2c0.2,0,0.5-0.1,0.7-0.3c0.3-0.2,0.4-0.4,0.5-0.7c0.1-0.3,0-0.6-0.1-0.9c-0.1-0.2-0.4-0.6-0.8-1.2l-0.9-1.3
	L21.3,87.6z"/>
<path class="st1" d="M29.3,99.6l1.1-1.3l3.4,2.9l-2.6,3.1c-0.6,0-1.3-0.1-2.1-0.4c-0.8-0.3-1.6-0.7-2.2-1.2
	c-0.8-0.7-1.4-1.5-1.7-2.3c-0.3-0.9-0.4-1.7-0.1-2.6s0.7-1.7,1.3-2.5c0.7-0.8,1.5-1.4,2.3-1.7c0.9-0.3,1.8-0.4,2.7-0.2
	c0.7,0.2,1.4,0.6,2.2,1.2c1,0.8,1.5,1.7,1.7,2.5c0.2,0.9,0.1,1.7-0.4,2.6l-1.8-1c0.2-0.5,0.3-0.9,0.1-1.4c-0.1-0.5-0.4-0.9-0.9-1.3
	c-0.7-0.6-1.4-0.8-2.2-0.7c-0.8,0.1-1.5,0.6-2.2,1.4c-0.8,0.9-1.2,1.8-1.1,2.6c0,0.8,0.4,1.5,1,2.1c0.3,0.3,0.7,0.5,1.2,0.6
	s0.9,0.2,1.2,0.2l0.8-1L29.3,99.6z"/>
<path class="st1" d="M42.3,111.8l-2-1l0.2-2.5l-3.7-1.8l-1.8,1.7l-2-0.9l8-7.4l2,0.9L42.3,111.8z M40.7,106.5l0.4-4l-2.9,2.8
	L40.7,106.5z"/>
<polygon class="st1" points="45.8,112.8 48,102.9 49.9,103.3 52.6,110.8 54,104.2 55.9,104.6 53.7,114.5 51.7,114.1 49.1,106.8 
	47.7,113.2 "/>
<rect x="54.1" y="108.7" transform="matrix(3.391300e-02 -0.9994 0.9994 3.391300e-02 -52.4727 165.1794)" class="st1" width="10.2" height="2.1"/>
<path class="st1" d="M70.1,110.3l2.1,0.3c-0.1,1.1-0.5,2-1.2,2.7c-0.6,0.6-1.5,1-2.6,1.2c-1.3,0.2-2.5-0.1-3.5-0.9
	c-1-0.8-1.6-2-1.8-3.6c-0.2-1.7,0-3,0.8-4.1c0.7-1,1.8-1.7,3.2-1.9c1.2-0.2,2.3,0.1,3.2,0.7c0.5,0.4,0.9,0.9,1.3,1.7l-1.9,0.8
	c-0.2-0.5-0.5-0.9-0.9-1.1c-0.4-0.2-0.9-0.3-1.4-0.3c-0.7,0.1-1.3,0.5-1.7,1.1c-0.4,0.6-0.5,1.5-0.3,2.7c0.2,1.3,0.5,2.1,1.1,2.6
	c0.5,0.5,1.2,0.7,1.9,0.6c0.5-0.1,1-0.3,1.3-0.7C69.8,111.6,70,111.1,70.1,110.3z"/>
<polygon class="st1" points="83.9,109.6 80.2,102.1 77.5,103.4 76.7,101.9 84,98.3 84.8,99.8 82.1,101.2 85.8,108.7 "/>
<path class="st1" d="M91.6,105.4l-6.3-8l3.4-2.7c0.9-0.7,1.5-1.1,2-1.3c0.5-0.2,1-0.1,1.5,0c0.5,0.2,1,0.5,1.3,1
	c0.5,0.6,0.7,1.2,0.6,1.9c0,0.7-0.4,1.3-1,2c0.5-0.1,1-0.1,1.4,0c0.4,0.1,1.1,0.3,1.9,0.6l2.2,0.8l-1.9,1.5l-2.5-0.8
	c-0.9-0.3-1.5-0.5-1.8-0.5c-0.3,0-0.5,0-0.7,0.1c-0.2,0.1-0.5,0.3-0.9,0.5l-0.3,0.3l2.6,3.3L91.6,105.4z M89.6,99.6l1.2-0.9
	c0.8-0.6,1.2-1,1.4-1.2c0.1-0.2,0.2-0.4,0.2-0.7c0-0.2-0.1-0.5-0.3-0.7c-0.2-0.3-0.5-0.4-0.7-0.5c-0.3-0.1-0.6,0-0.9,0.2
	c-0.1,0.1-0.5,0.4-1.2,0.9l-1.3,1L89.6,99.6z"/>
<path class="st1" d="M93.3,90.8l1.3-1.6l4.3,3.5c0.7,0.5,1.1,0.9,1.4,1c0.4,0.2,0.8,0.2,1.2,0.1c0.4-0.1,0.8-0.4,1.1-0.8
	c0.4-0.5,0.5-0.9,0.5-1.2s-0.1-0.7-0.3-1c-0.2-0.3-0.7-0.7-1.3-1.2l-4.4-3.5l1.3-1.6l4.2,3.4c0.9,0.8,1.6,1.4,1.9,1.8
	c0.3,0.4,0.5,0.8,0.6,1.3c0.1,0.4,0,0.9-0.1,1.5c-0.2,0.5-0.5,1.1-1,1.7c-0.6,0.8-1.2,1.3-1.6,1.5c-0.5,0.2-1,0.4-1.4,0.4
	c-0.5,0-0.9-0.1-1.2-0.3c-0.5-0.3-1.2-0.8-2.1-1.5L93.3,90.8z"/>
<path class="st1" d="M105.6,86l0.7-1.9c0.7,0.2,1.2,0.2,1.6,0c0.4-0.2,0.8-0.6,1.1-1.1c0.3-0.6,0.4-1.1,0.3-1.5
	c-0.1-0.4-0.3-0.7-0.6-0.9c-0.2-0.1-0.4-0.1-0.6-0.1c-0.2,0-0.5,0.2-0.7,0.5c-0.2,0.2-0.6,0.6-1.1,1.3c-0.7,0.9-1.4,1.4-1.9,1.6
	c-0.8,0.3-1.5,0.3-2.2-0.1c-0.5-0.2-0.8-0.6-1.1-1c-0.3-0.5-0.4-1-0.3-1.6c0-0.6,0.2-1.2,0.6-1.9c0.6-1.1,1.3-1.9,2-2.2
	c0.8-0.3,1.6-0.3,2.5,0.1l-0.8,1.9c-0.5-0.2-0.9-0.2-1.3,0s-0.6,0.5-0.9,1c-0.3,0.5-0.4,1-0.3,1.4c0,0.3,0.2,0.5,0.4,0.6
	c0.2,0.1,0.4,0.1,0.7,0c0.3-0.1,0.8-0.6,1.5-1.4c0.7-0.8,1.2-1.3,1.7-1.6c0.4-0.3,0.9-0.5,1.4-0.5s1.1,0.1,1.6,0.4
	c0.5,0.3,0.9,0.7,1.2,1.2c0.3,0.5,0.4,1.1,0.4,1.7c0,0.6-0.3,1.4-0.7,2.1c-0.6,1.1-1.3,1.9-2.1,2.2C107.6,86.4,106.7,86.4,105.6,86z
	"/>
<polygon class="st1" points="114.2,74.2 106.1,71.9 105.3,74.8 103.6,74.4 105.8,66.6 107.5,67.1 106.7,70 114.8,72.2 "/>
</svg>
