<svg enable-background="new 0 0 172.6 178.2" viewBox="0 0 172.6 178.2" xmlns="http://www.w3.org/2000/svg"><path d="m169.7 6.5c-39.8 13-105.5 1.7-105.5 1.7-44.6-9.9-60.5-1.4-60.5-1.4v114.9h166z" fill="#3a8e97"/><path d="m3.7 157.4s17.8-8 60.5 1.3c0 0 65.7 11.3 105.5-1.7v-32.8h-166z" fill="#3a8e97"/><path d="m50.4 90.8s31-55.4 48.6-66.5c0 0-24.5 32.1-48.9 92.8 0 0-11.8-38.8-16.5-44.4 0 .1 8.7 7.4 16.8 18.1z" fill="#f2cd00"/><path d="m93.4 22.9s-20.1-1.4-40-7c0 0-20.2-5.9-29.6-2 0 0-13.8 2.5-6.1 24.4l13.9 30s-8.9-38.7-1.1-41.2c8.2 10.4 19.3 56.9 19.3 56.9-.8-28.1-7-56.9-7.7-60.5.8-.1 3.1-.1 4.1-.2 5.8 9.4 12.1 48.7 12.1 48.7 2-14.6-3-49-3-49s2.1.1 3.7.2c3.7 6 7 35.9 7 35.9 1.5-12.4 1-35.5 1-35.5s2.6 0 3.5 0c2.8 4.2 3.5 25.5 3.8 22.6.3-2.7 2.2-22.7 2.2-22.7s11.7-.2 16.9-.6z" fill="#fff"/><path d="m79.3 78.7c0-3.8-.6-3.6-4.1-4.3v-.9h8.6l12.9 22.2.1 3v-25.2h2.6v27.5h-3.9l-13.6-23.3v23.2h-2.6z" fill="#fff"/><path d="m108.2 100.9h2.5l3.1-8.5h10.4l3.1 8.5h4.2l-10-27.5h-7.7v.9c1.6.2 3.1.3 3.1 1.9 0 .3-.4 1.7-.7 2.4zm10.6-22.3 4.7 11.9h-9z" fill="#fff"/><path d="m144.2 87.4h3.7c3.6 0 6.6 1.4 6.6 5.5 0 4.2-1.9 6.2-6.4 6.2-2.2 0-3.9 0-3.9-1.7zm-4.5 13.5h7.7c3.3 0 11.6 0 11.6-7.3 0-5.2-3.4-6.7-6.3-7.3v-.1c2-.7 4.9-2.2 4.9-6.2 0-5.5-5-6.6-9.7-6.6h-12.1v.9c3.8.6 3.9.6 3.9 4.7zm4.5-23.4c0-2 .7-2.1 3.1-2.1 3.7 0 5.8 1.2 5.8 4.9 0 4-2.7 5.2-6.2 5.2h-2.7z" fill="#fff"/><path d="m16.8 99.8c2.9 0 3.5-.6 3.5-3.8v-17.6c0-3.2-.6-3.8-3.5-3.8v-1h11.4v1c-2.9 0-3.5.6-3.5 3.8v17.6c0 3.2.6 3.8 3.5 3.8v1h-11.4z" fill="#fff"/><path d="m106.2 112.6h2l-1-3.2zm.3-4.3h1.5l2.5 7.2h-1.3l-.6-2h-2.6l-.6 2h-1.4z" fill="#fff"/><path d="m115.9 115.2c-.3.1-1.1.4-2 .4-2.1 0-3-1.5-3-3.8 0-2.1.8-3.7 2.9-3.7 1.7 0 2.4 1 2.4 2.1h-1.4c0-.6-.1-1.2-1.1-1.2-1.3 0-1.5 1.5-1.5 2.6 0 1.7.5 3 2 3 .8 0 1.5-.4 1.7-.5z" fill="#fff"/><path d="m121.7 115.2c-.3.1-1.1.4-2 .4-2.1 0-3-1.5-3-3.8 0-2.1.8-3.7 2.9-3.7 1.7 0 2.4 1 2.4 2.1h-1.4c0-.6-.1-1.2-1.1-1.2-1.3 0-1.5 1.5-1.5 2.6 0 1.7.5 3 2 3 .8 0 1.5-.4 1.7-.5z" fill="#fff"/><path d="m124.1 111.6h.5c.8 0 1.6-.2 1.6-1.2 0-.8-.4-1.2-1.1-1.2h-1zm-1.3-3.3h2.2c1.4 0 2.3.5 2.3 1.9 0 1.1-.7 1.5-1.4 1.7 1 .2 1.1.8 1.3 1.6l.4 2h-1.2l-.3-1.6c-.3-1.2-.4-1.5-1.5-1.5h-.5v3.1h-1.2v-7.2z" fill="#fff"/><path d="m128.7 108.3h4.2v.9h-3v2.1h2.9v.9h-2.9v2.4h3.1v.9h-4.3z" fill="#fff"/><path d="m135.4 114.7h.6c1.2 0 1.8-.5 1.8-2.8 0-1.8-.3-2.7-1.8-2.7h-.6zm-1.2-6.4h1.8c2.3 0 3.2 1 3.2 3.6 0 3.3-1.7 3.6-3.2 3.6h-1.8z" fill="#fff"/><path d="m140.3 108.3h1.2v7.2h-1.2z" fill="#fff"/><path d="m144.1 109.2h-1.8v-.9h4.9v.9h-1.8v6.3h-1.3z" fill="#fff"/><path d="m148 108.3h4.2v.9h-3v2.1h2.8v.9h-2.8v2.4h3.1v.9h-4.3z" fill="#fff"/><path d="m154.6 114.7h.6c1.2 0 1.8-.5 1.8-2.8 0-1.8-.3-2.7-1.8-2.7h-.6zm-1.2-6.4h1.8c2.3 0 3.2 1 3.2 3.6 0 3.3-1.7 3.6-3.2 3.6h-1.8z" fill="#fff"/><path d="m100.2 46.9h1.2v9.4h-1.2z" fill="#f6f6f6"/><path d="m103.4 54.9c.5.3 1.3.6 2.2.6 1.2 0 2-.7 2-1.6s-.5-1.4-1.8-1.9c-1.5-.5-2.5-1.3-2.5-2.7 0-1.5 1.2-2.6 3.1-2.6 1 0 1.7.2 2.1.5l-.3 1c-.3-.2-.9-.4-1.8-.4-1.3 0-1.8.8-1.8 1.4 0 .9.6 1.3 1.9 1.8 1.6.6 2.4 1.4 2.4 2.8 0 1.5-1.1 2.7-3.3 2.7-.9 0-1.9-.3-2.4-.6z" fill="#f6f6f6"/><path d="m118.5 51.6c0 3.2-2 5-4.4 5-2.5 0-4.2-1.9-4.2-4.8 0-3 1.9-5 4.4-5 2.6 0 4.2 2 4.2 4.8zm-7.3.1c0 2 1.1 3.8 3 3.8s3-1.8 3-3.9c0-1.9-1-3.8-3-3.8s-3 1.8-3 3.9z" fill="#f6f6f6"/><path d="m125.3 48.4-1.6.9-.2-1 2-1h1v9.1h-1.2z" fill="#f6f6f6"/><path d="m135.7 47.3v.8l-3.9 8.3h-1.3l4-8.1h-4.5v-1z" fill="#f6f6f6"/><path d="m143.1 51.7c0 3.1-1.1 4.8-3.2 4.8-1.8 0-3-1.7-3-4.7 0-3.1 1.3-4.7 3.2-4.7s3 1.7 3 4.6zm-5 .2c0 2.4.7 3.7 1.8 3.7 1.3 0 1.9-1.5 1.9-3.8 0-2.2-.6-3.7-1.8-3.7-1.1 0-1.9 1.3-1.9 3.8z" fill="#f6f6f6"/><path d="m149.4 48.1c-.3 0-.6 0-.9.1-1.9.3-3 1.7-3.2 3.2.4-.6 1.2-1.1 2.2-1.1 1.6 0 2.7 1.2 2.7 2.9s-1.1 3.2-3 3.2-3.2-1.5-3.2-3.9c0-1.8.6-3.2 1.5-4.1.8-.7 1.8-1.2 2.9-1.3.4-.1.7-.1.9-.1v1.1zm-.4 5.3c0-1.3-.7-2.1-1.9-2.1-.7 0-1.4.5-1.8 1.1-.1.1-.1.3-.1.5 0 1.5.7 2.6 2 2.6 1.1.1 1.8-.8 1.8-2.1z" fill="#f6f6f6"/><path d="m156.8 48.3h-3.5l-.4 2.3c.2 0 .4-.1.7-.1.7 0 1.4.2 2 .5.7.4 1.3 1.2 1.3 2.3 0 1.8-1.4 3.1-3.4 3.1-1 0-1.8-.3-2.3-.6l.3-.9c.4.2 1.1.5 1.9.5 1.2 0 2.2-.8 2.2-2s-.8-2-2.6-2c-.5 0-.9.1-1.3.1l.6-4.4h4.4v1.2z" fill="#f6f6f6"/><g fill="#3a8e97"><path d="m5.7 160.7c.6-.2 1.3-.4 2.1-.6 1.4-.3 2.5-.1 3.3.3.8.5 1.4 1.3 1.6 2.5s.1 2.3-.5 3.2-1.7 1.5-3.2 1.8c-.7.1-1.3.2-1.8.3zm2.3 6.5c.3 0 .6-.1 1-.1 2.1-.4 3-1.8 2.6-3.9-.3-1.8-1.6-2.7-3.7-2.3-.5.1-.9.2-1.1.3z"/><path d="m18.3 162.9-3 .3.3 2.8 3.3-.4.1.9-4.3.4-.8-7.7 4.2-.4.1.8-3.2.3.2 2.5 3-.3z"/><path d="m21.7 159.4-2.3.1v-.8l5.7-.3v.9l-2.3.1.2 6.9h-1z"/><path d="m26.7 163.8-.8 2.4h-1l2.7-7.7h1.2l2.6 7.8h-1.1l-.8-2.4zm2.6-.8-.7-2.2c-.2-.5-.3-1-.4-1.4-.1.5-.3.9-.4 1.4l-.8 2.2z"/><path d="m29.4 162h7.8v1h-7.8z" transform="matrix(.0477387 -.9989 .9989 .0477387 -130.6454 187.9655)"/><path d="m36 158.8h1l-.5 6.9 3.3.3-.1.8-4.3-.3z"/><path d="m45.3 163.8-3-.4-.3 2.8 3.3.4-.1.8-4.3-.5.8-7.7 4.2.5-.1.8-3.2-.3-.2 2.4 3 .4z"/><path d="m47.7 160c.6 0 1.3 0 2.1.2 1.4.2 2.4.7 3 1.4s.9 1.7.7 2.9c-.2 1.3-.7 2.2-1.5 2.8s-2.1.8-3.6.6c-.7-.1-1.3-.2-1.8-.4zm0 7c.2.1.6.1 1 .2 2.1.3 3.4-.7 3.7-2.8.3-1.8-.6-3.1-2.7-3.4-.5-.1-.9-.1-1.2-.1z"/><path d="m54.1 165h7.8v1h-7.8z" transform="matrix(.1844 -.9829 .9829 .1844 -115.3823 192.0027)"/><path d="m59.6 169.8 1.6-7.6 1.1.2 1.6 4.3c.4 1 .6 1.9.8 2.7.1-1 .3-2 .5-3.1l.7-3.2.9.2-1.6 7.6-1-.2-1.6-4.4c-.4-1-.7-1.9-.9-2.8-.1 1-.3 1.9-.6 3.1l-.7 3.2z"/><path d="m70 170.4c.4.3 1 .6 1.7.7 1 .1 1.7-.3 1.8-1.1.1-.7-.3-1.2-1.2-1.7-1.2-.6-1.9-1.4-1.7-2.5.2-1.2 1.3-2 2.8-1.8.8.1 1.3.4 1.6.6l-.4.8c-.2-.2-.7-.5-1.4-.6-1-.1-1.5.4-1.6 1-.1.7.3 1.1 1.3 1.7 1.2.7 1.8 1.4 1.7 2.5-.2 1.2-1.2 2.1-3 1.8-.7-.1-1.5-.4-1.9-.8z"/><path d="m81.1 172.8c-.4.1-1.1.2-2.1.1-2.2-.3-3.6-1.8-3.3-4.3.3-2.4 2.1-3.8 4.5-3.6 1 .1 1.5.4 1.8.6l-.3.8c-.4-.2-.9-.4-1.5-.5-1.8-.2-3.1.8-3.4 2.8-.2 1.9.7 3.2 2.6 3.4.6.1 1.2 0 1.7-.1z"/><path d="m89.2 169.9c-.3 2.7-2 3.9-4 3.7s-3.3-1.9-3.1-4.3 1.9-3.9 4-3.7 3.3 2 3.1 4.3zm-6-.5c-.2 1.6.6 3.2 2.1 3.4 1.6.2 2.6-1.2 2.8-3 .2-1.5-.5-3.2-2.1-3.4-1.7-.1-2.7 1.3-2.8 3z"/><path d="m90.8 166.3c.5 0 1.1-.1 1.9 0 1 .1 1.7.4 2.1.8s.6 1 .5 1.7-.3 1.2-.7 1.6c-.6.5-1.5.7-2.4.7-.3 0-.6-.1-.8-.1l-.3 3.1-1-.1zm.7 3.8c.2.1.5.1.8.1 1.2.1 2-.4 2.1-1.5.1-1-.6-1.6-1.7-1.7-.4 0-.8 0-.9 0z"/><path d="m100.6 171.1-3-.2-.2 2.8 3.4.2-.1.8-4.3-.3.5-7.7 4.2.3-.1.8-3.1-.2-.2 2.4 3 .2z"/><path d="m105.1 167.3c.5-.1 1.2-.1 1.9-.1 1.1 0 1.7.3 2.2.7.4.4.6.9.5 1.5 0 1-.7 1.7-1.5 1.9.6.2.9.8 1.1 1.6.2 1.1.4 1.8.5 2.2h-1c-.1-.2-.3-.9-.4-1.9-.2-1.1-.6-1.5-1.5-1.6h-.9l-.1 3.4h-1zm.8 3.6h1c1.1 0 1.8-.5 1.8-1.4 0-1-.7-1.5-1.7-1.5-.5 0-.8 0-1 0z"/><path d="m115.1 171.6h-3v2.8h3.3v.9l-4.4-.1.2-7.8 4.2.1v.9l-3.2-.1v2.5h3z"/><path d="m122.7 175c-.4.2-1.3.4-2.4.4-1.2 0-2.1-.3-2.9-1-.7-.6-1.1-1.7-1.1-2.9 0-2.3 1.6-4 4.2-4 .9 0 1.6.2 1.9.4l-.2.8c-.4-.2-.9-.3-1.7-.3-1.9 0-3.1 1.2-3.1 3.1 0 2 1.2 3.1 3 3.1.7 0 1.1-.1 1.3-.2v-2.3h-1.6v-.8h2.6z"/><path d="m126.9 175.3-.3-7.7h1.1l2.6 3.8c.6.9 1.1 1.7 1.5 2.5-.1-1-.2-2-.2-3.2l-.1-3.2h.9l.3 7.7h-1l-2.6-3.8c-.6-.8-1.1-1.7-1.5-2.5.1 1 .1 1.9.2 3.2l.1 3.3z"/><path d="m140.9 170.5c.2 2.7-1.3 4.2-3.3 4.3s-3.6-1.3-3.8-3.7c-.2-2.5 1.2-4.2 3.3-4.3s3.6 1.5 3.8 3.7zm-6 .6c.1 1.7 1.1 3.1 2.7 3s2.4-1.6 2.3-3.4c-.1-1.5-1-3.1-2.7-3s-2.4 1.7-2.3 3.4z"/><path d="m141.9 173.8c0-.4.2-.7.6-.8.4 0 .7.2.7.7 0 .4-.2.7-.6.8-.3 0-.7-.3-.7-.7z"/><path d="m150.5 166.6c-.2 0-.5.1-.7.1-1.5.5-2.2 1.7-2.2 3 .3-.5.9-1 1.7-1.1 1.3-.2 2.4.6 2.6 2.1.2 1.4-.6 2.7-2.1 3-1.6.2-2.8-.9-3.1-2.8-.2-1.5.2-2.7.8-3.5.5-.7 1.3-1.2 2.2-1.4.3-.1.5-.1.7-.2zm.3 4.3c-.1-1.1-.8-1.6-1.8-1.5-.6.1-1.1.5-1.3 1.1-.1.1-.1.3-.1.5.2 1.2.9 2 1.9 1.9.9-.2 1.4-1 1.3-2z"/><path d="m157.6 168.3c.5 2.5-.2 4-1.8 4.3-1.4.3-2.7-.9-3.1-3.3-.4-2.5.4-4 1.9-4.3 1.4-.2 2.6 1 3 3.3zm-4 .9c.3 1.9 1.1 2.9 2 2.7 1-.2 1.3-1.5.9-3.3-.3-1.8-1-2.9-2-2.7-.8.1-1.2 1.3-.9 3.3z"/><path d="m163.6 166.9c.6 2.5 0 4.1-1.6 4.4-1.4.3-2.7-.8-3.3-3.2s.2-4 1.6-4.4c1.5-.2 2.7.9 3.3 3.2zm-4 1.1c.4 1.9 1.3 2.8 2.2 2.6 1-.2 1.2-1.5.8-3.4-.4-1.8-1.2-2.9-2.2-2.6-.9.2-1.2 1.4-.8 3.4z"/><path d="m165.6 168.4c-.3-.9.1-1.7.8-2.4-.9-.1-1.4-.6-1.6-1.3-.4-1.1.4-2.2 1.6-2.6 1.4-.4 2.3.2 2.6 1.1.2.6.1 1.3-.7 2 1 .1 1.7.5 2 1.4.4 1.2-.4 2.4-1.8 2.8-1.4.6-2.6 0-2.9-1zm.1-4c.2.7.9.9 1.8.9.6-.4.9-1 .7-1.6s-.7-1.1-1.6-.8c-.8.2-1.1.9-.9 1.5zm3.7 2.7c-.3-.9-1-1.1-2.1-1.1-.8.5-1 1.2-.8 1.9s.9 1.2 1.9.9c.9-.2 1.3-.9 1-1.7z"/></g><path d="m101.9 129.7c.6-.1 1.4-.2 2.3-.2 1.2 0 2.1.3 2.6.8.5.4.8 1.1.8 2s-.3 1.5-.7 2c-.6.7-1.7 1-2.9 1-.4 0-.7 0-1-.1v3.8h-1.2v-9.3zm1.2 4.5c.3.1.6.1 1 .1 1.5 0 2.4-.7 2.4-2 0-1.2-.9-1.8-2.2-1.8-.5 0-.9 0-1.1.1v3.6z" fill="#fff"/><path d="m109.3 129.7c.6-.1 1.5-.2 2.3-.2 1.3 0 2.1.2 2.7.8.5.4.7 1.1.7 1.8 0 1.2-.8 2.1-1.8 2.4.7.3 1.2.9 1.4 1.9.3 1.3.5 2.2.7 2.6h-1.3c-.2-.3-.4-1.1-.6-2.3-.3-1.3-.8-1.8-1.9-1.8h-1.1v4.1h-1.2v-9.3zm1.2 4.3h1.2c1.3 0 2.1-.7 2.1-1.8 0-1.2-.9-1.8-2.2-1.8-.6 0-1 .1-1.2.1v3.5z" fill="#fff"/><path d="m124.9 134.2c0 3.2-2 5-4.4 5-2.5 0-4.2-1.9-4.2-4.8 0-3 1.9-5 4.4-5 2.6 0 4.2 2 4.2 4.8zm-7.3.2c0 2 1.1 3.8 3 3.8s3-1.8 3-3.9c0-1.9-1-3.8-3-3.8-2-.1-3 1.8-3 3.9z" fill="#fff"/><path d="m126.5 129.7c.7-.1 1.6-.2 2.6-.2 1.8 0 3 .4 3.8 1.2s1.3 1.9 1.3 3.4-.5 2.8-1.4 3.7-2.3 1.4-4.2 1.4c-.9 0-1.6 0-2.2-.1v-9.4zm1.2 8.4c.3.1.8.1 1.2.1 2.6 0 4-1.5 4-4 0-2.2-1.2-3.6-3.8-3.6-.6 0-1.1.1-1.4.1z" fill="#fff"/><path d="m137.1 129.6v5.6c0 2.1.9 3 2.2 3 1.4 0 2.3-.9 2.3-3v-5.6h1.2v5.5c0 2.9-1.5 4.1-3.6 4.1-1.9 0-3.4-1.1-3.4-4v-5.6z" fill="#fff"/><path d="m151.5 138.7c-.4.2-1.3.4-2.5.4-2.7 0-4.7-1.7-4.7-4.8 0-3 2-5 4.9-5 1.2 0 1.9.3 2.2.4l-.3 1c-.5-.2-1.1-.4-1.9-.4-2.2 0-3.7 1.4-3.7 3.9 0 2.3 1.3 3.8 3.6 3.8.7 0 1.5-.2 2-.4z" fill="#fff"/><path d="m155.2 130.6h-2.9v-1h7v1h-2.9v8.4h-1.2z" fill="#fff"/><path d="m79 152.7c-.4.2-1.3.4-2.5.4-2.7 0-4.7-1.7-4.7-4.8 0-3 2-5 4.9-5 1.2 0 1.9.3 2.2.4l-.3 1c-.5-.2-1.1-.4-1.9-.4-2.2 0-3.7 1.4-3.7 3.9 0 2.3 1.3 3.8 3.6 3.8.7 0 1.5-.2 2-.4z" fill="#fff"/><path d="m85.4 148.6h-3.6v3.4h4v1h-5.3v-9.4h5.1v1h-3.8v3h3.6z" fill="#fff"/><path d="m87.4 143.7c.6-.1 1.5-.2 2.3-.2 1.3 0 2.1.2 2.7.8.5.4.7 1.1.7 1.8 0 1.2-.8 2.1-1.8 2.4.7.3 1.2.9 1.4 1.9.3 1.3.5 2.2.7 2.6h-1.3c-.2-.3-.4-1.1-.6-2.3-.3-1.3-.8-1.8-1.9-1.8h-1.1v4.1h-1.2v-9.3zm1.2 4.3h1.2c1.3 0 2.1-.7 2.1-1.8 0-1.2-.9-1.8-2.2-1.8-.6 0-1 .1-1.2.1v3.5z" fill="#fff"/><path d="m96.9 144.6h-2.9v-1h7v1h-2.9v8.4h-1.2z" fill="#fff"/><path d="m102 143.6h1.2v9.4h-1.2z" fill="#fff"/><path d="m105.4 143.6h5.1v1h-3.9v3.1h3.6v1h-3.6v4.3h-1.2z" fill="#fff"/><path d="m112.2 143.6h1.2v9.4h-1.2z" fill="#fff"/><path d="m122.1 152.7c-.4.2-1.3.4-2.5.4-2.7 0-4.7-1.7-4.7-4.8 0-3 2-5 4.9-5 1.2 0 1.9.3 2.2.4l-.3 1c-.5-.2-1.1-.4-1.9-.4-2.2 0-3.7 1.4-3.7 3.9 0 2.3 1.3 3.8 3.6 3.8.7 0 1.5-.2 2-.4z" fill="#fff"/><path d="m125.2 150.1-1 3h-1.2l3.2-9.4h1.5l3.2 9.4h-1.3l-1-3zm3.1-1-.9-2.7c-.2-.6-.4-1.2-.5-1.7-.1.6-.3 1.1-.5 1.7l-.9 2.7z" fill="#fff"/><path d="m133 144.6h-2.9v-1h7v1h-2.9v8.4h-1.2z" fill="#fff"/><path d="m138.2 143.6h1.2v9.4h-1.2z" fill="#fff"/><path d="m149.6 148.2c0 3.2-2 5-4.4 5-2.5 0-4.2-1.9-4.2-4.8 0-3 1.9-5 4.4-5s4.2 2 4.2 4.8zm-7.3.2c0 2 1.1 3.8 3 3.8s3-1.8 3-3.9c0-1.9-1-3.8-3-3.8-2-.1-3 1.8-3 3.9z" fill="#fff"/><path d="m151.2 153v-9.4h1.3l3 4.8c.7 1.1 1.2 2.1 1.7 3.1-.1-1.3-.1-2.4-.1-3.9v-4h1.1v9.4h-1.2l-3-4.8c-.7-1-1.3-2.1-1.8-3.2.1 1.2.1 2.3.1 3.9v4h-1.1z" fill="#fff"/></svg>